<?xml version="1.0" encoding="UTF-8" standalone="no"?>
<svg
   width="447.43259"
   height="38.937202"
   viewBox="0 0 447.43259 38.937202"
   fill="none"
   version="1.1"
   id="svg4"
   xmlns="http://www.w3.org/2000/svg"
   xmlns:svg="http://www.w3.org/2000/svg">
  <defs
     id="defs4" />
  <path
     d="m 215.7126,4.2372005 c -2.233,0 -4.317,0.5667 -6.25,1.7 -1.9,1.1 -3.417,2.6167 -4.55,4.5500005 -1.133,1.9 -1.7,3.9833 -1.7,6.25 v 6.6 c 0,2.3667 0.333,4.3167 1,5.85 0.933,2.1667 2.35,3.9333 4.25,5.3 1.9,1.3667 4.033,2.1333 6.4,2.3 v -16.25 h 15.25 v 3.3 c 0,2.1333 -0.317,4.0333 -0.95,5.7 -1.033,2.7667 -2.767,4.9833 -5.2,6.65 -2.433,1.6667 -5.183,2.5 -8.25,2.5 -2.9,0 -5.55,-0.7833 -7.95,-2.35 -2.367,-1.6 -4.1,-3.7167 -5.2,-6.35 -0.8,-1.8667 -1.2,-4.0833 -1.2,-6.65 v -6.6 c 0,-2.6 0.633,-5 1.9,-7.2000005 1.3,-2.2 3.05,-3.9333 5.25,-5.2 2.2,-1.3 4.6,-1.95 7.2,-1.95 2.167,0 4.15,0.3667 5.95,1.1 1.8,0.7 3.333,1.7333 4.6,3.1 1.033,1.1333 1.867,2.4 2.5,3.8000005 0.667,1.4 1,2.8167 1,4.25 h -1.8 c -0.033,-1.2333 -0.35,-2.45 -0.95,-3.65 -0.567,-1.2000005 -1.3,-2.2833005 -2.2,-3.2500005 -2.233,-2.3333 -5.267,-3.5 -9.1,-3.5 z m 12.55,18.1000005 h -11.6 v 14.45 c 2.4,-0.1667 4.55,-0.9167 6.45,-2.25 1.933,-1.3667 3.35,-3.1667 4.25,-5.4 0.6,-1.5667 0.9,-3.3333 0.9,-5.3 z m 10.312,15.6 V 3.1372005 h 1.85 V 19.587201 h 23.1 V 3.1372005 h 1.85 V 37.937201 h -1.85 v -16.5 h -23.1 v 16.5 z m 48.461,-34.8000005 h 1.95 l 14.3,34.8000005 h -2 l -4.7,-11.5 h -17.15 l -4.75,11.5 h -1.95 z m -6.85,21.5000005 h 15.65 l -7.85,-19.1000005 z m 33.062,13.3 V 3.1372005 h 1.85 V 36.087201 h 24.25 v 1.85 z m 36.012,0 V 3.1372005 h 1.85 V 36.087201 h 24.25 v 1.85 z m 45.812,-34.8000005 h 1.95 l 14.3,34.8000005 h -2 l -4.7,-11.5 h -17.15 l -4.75,11.5 h -1.95 z m -6.85,21.5000005 h 15.65 l -7.85,-19.1000005 z m 34.111,13.3 h -1.85 V 3.1372005 h 14 c 2.334,0 4.484,0.5 6.45,1.5 2,1 3.584,2.4167 4.75,4.25 1.167,1.8333005 1.75,3.9500005 1.75,6.3500005 0,2.3 -0.6,4.4167 -1.8,6.35 -1.166,1.9333 -2.766,3.4167 -4.8,4.45 -1.766,0.9 -3.883,1.35 -6.35,1.35 h -12.15 z m 0,-12.4 h 12.15 c 2.134,0 3.884,-0.3333 5.25,-1 1.767,-0.8333 3.184,-2.0833 4.25,-3.75 1.067,-1.6667 1.6,-3.5167 1.6,-5.55 0,-2 -0.533,-3.8333 -1.6,-5.5000005 -1.066,-1.6667 -2.5,-2.9167 -4.3,-3.75 -1.366,-0.6667 -3.1,-1 -5.2,-1 h -12.15 z"
     fill="#000000"
     id="path1" />
  <mask
     id="path-2-outside-1_115_3"
     maskUnits="userSpaceOnUse"
     x="0"
     y="18"
     width="190"
     height="39"
     fill="#000000">
    <rect
       fill="#ffffff"
       y="18"
       width="190"
       height="39"
       id="rect1"
       x="0" />
    <path
       d="M 34.9,56 H 2.1 L 18.5,20.45 Z M 5,54.15 H 32 L 18.5,24.85 Z M 44.1117,56 V 21.2 h 1.85 v 16.45 h 23.1 V 21.2 h 1.85 V 56 h -1.85 V 39.5 h -23.1 V 56 Z m 40.2117,0 h -1.85 V 21.2 h 2 l 12.15,21.45 12.0996,-21.45 h 1.85 V 56 h -1.85 V 24.9 L 97.4734,44.75 h -1.75 l -11.4,-20.1 z M 123.535,21.2 h 24.5 v 1.85 h -22.65 v 14.1 h 19.7 V 39 h -19.7 v 15.15 h 22.65 V 56 h -24.5 z m 50.662,0 c 2.533,0 4.867,0.6333 7,1.9 2.167,1.2667 3.883,2.9833 5.15,5.15 1.267,2.1333 1.9,4.4667 1.9,7 v 6.7 c 0,2.5333 -0.633,4.8833 -1.9,7.05 -1.267,2.1333 -2.983,3.8333 -5.15,5.1 -2.133,1.2667 -4.467,1.9 -7,1.9 h -12.85 V 21.2 Z m 12.2,14.05 c 0,-2.2 -0.55,-4.2333 -1.65,-6.1 -1.1,-1.8667 -2.6,-3.35 -4.5,-4.45 -1.867,-1.1 -3.9,-1.65 -6.1,-1.65 h -10.95 v 31.1 h 10.95 c 2.2,0 4.233,-0.55 6.1,-1.65 1.9,-1.1 3.4,-2.5833 4.5,-4.45 1.1,-1.8667 1.65,-3.9 1.65,-6.1 z"
       id="path2" />
  </mask>
  <path
     d="m 34.362602,37.937201 h -32.8 l 16.4,-35.5500005 z m -29.9,-1.85 h 27 l -13.5,-29.3000005 z m 39.1117,1.85 V 3.1372005 h 1.85 V 19.587201 h 23.1 V 3.1372005 h 1.85 V 37.937201 h -1.85 v -16.5 h -23.1 v 16.5 z m 40.2117,0 h -1.85 V 3.1372005 h 2 l 12.15,21.4500005 L 108.1856,3.1372005 h 1.85 V 37.937201 h -1.85 V 6.8372005 L 96.936002,26.687201 h -1.75 l -11.4,-20.1000005 z M 122.9976,3.1372005 h 24.5 v 1.85 h -22.65 V 19.087201 h 19.7 v 1.85 h -19.7 v 15.15 h 22.65 v 1.85 h -24.5 z m 50.662,0 c 2.533,0 4.867,0.6333 7,1.9 2.167,1.2667 3.883,2.9833 5.15,5.1500005 1.267,2.1333 1.9,4.4667 1.9,7 v 6.7 c 0,2.5333 -0.633,4.8833 -1.9,7.05 -1.267,2.1333 -2.983,3.8333 -5.15,5.1 -2.133,1.2667 -4.467,1.9 -7,1.9 h -12.85 V 3.1372005 Z m 12.2,14.0500005 c 0,-2.2 -0.55,-4.2333 -1.65,-6.1 -1.1,-1.8667005 -2.6,-3.3500005 -4.5,-4.4500005 -1.867,-1.1 -3.9,-1.65 -6.1,-1.65 h -10.95 V 36.087201 h 10.95 c 2.2,0 4.233,-0.55 6.1,-1.65 1.9,-1.1 3.4,-2.5833 4.5,-4.45 1.1,-1.8667 1.65,-3.9 1.65,-6.1 z"
     fill="#000000"
     id="path3" />
  <path
     d="m 34.9,56 v 1 h 1.5626 L 35.808,55.5811 Z M 2.1,56 1.19197,55.5811 0.537398,57 H 2.1 Z M 18.5,20.45 19.408,20.0311 18.5,18.0628 17.592,20.0311 Z M 5,54.15 4.09177,53.7315 3.43821,55.15 H 5 Z m 27,0 v 1 h 1.5618 L 32.9082,53.7315 Z M 18.5,24.85 19.4082,24.4315 18.5,22.4603 17.5918,24.4315 Z M 34.9,55 H 2.1 v 2 H 34.9 Z M 3.00803,56.4189 19.408,20.8689 17.592,20.0311 1.19197,55.5811 Z m 14.58397,-35.55 16.4,35.55 1.816,-0.8378 -16.4,-35.55 z M 5,55.15 h 27 v -2 H 5 Z m 27.9082,-1.4185 -13.5,-29.3 -1.8164,0.837 13.5,29.3 z m -15.3164,-29.3 -13.50003,29.3 1.81646,0.837 13.49997,-29.3 z M 44.1117,56 h -1 v 1 h 1 z m 0,-34.8 v -1 h -1 v 1 z m 1.85,0 h 1 v -1 h -1 z m 0,16.45 h -1 v 1 h 1 z m 23.1,0 v 1 h 1 v -1 z m 0,-16.45 v -1 h -1 v 1 z m 1.85,0 h 1 v -1 h -1 z m 0,34.8 v 1 h 1 v -1 z m -1.85,0 h -1 v 1 h 1 z m 0,-16.5 h 1 v -1 h -1 z m -23.1,0 v -1 h -1 v 1 z m 0,16.5 v 1 h 1 v -1 z m -0.85,0 V 21.2 h -2 V 56 Z m -1,-33.8 h 1.85 v -2 h -1.85 z m 0.85,-1 v 16.45 h 2 V 21.2 Z m 1,17.45 h 23.1 v -2 h -23.1 z m 24.1,-1 V 21.2 h -2 v 16.45 z m -1,-15.45 h 1.85 v -2 h -1.85 z m 0.85,-1 V 56 h 2 V 21.2 Z m 1,33.8 h -1.85 v 2 h 1.85 z m -0.85,1 V 39.5 h -2 V 56 Z m -1,-17.5 h -23.1 v 2 h 23.1 z m -24.1,1 V 56 h 2 V 39.5 Z m 1,15.5 h -1.85 v 2 h 1.85 z m 38.3617,1 v 1 h 1 v -1 z m -1.85,0 h -1 v 1 h 1 z m 0,-34.8 v -1 h -1 v 1 z m 2,0 0.8701,-0.4929 L 85.0563,20.2 h -0.5829 z m 12.15,21.45 -0.8701,0.4929 0.8719,1.5392 0.8692,-1.5408 z M 108.723,21.2 v -1 h -0.584 l -0.287,0.5087 z m 1.85,0 h 1 v -1 h -1 z m 0,34.8 v 1 h 1 v -1 z m -1.85,0 h -1 v 1 h 1 z m 0,-31.1 h 1 v -3.7926 l -1.87,3.2995 z M 97.4734,44.75 v 1 h 0.5827 l 0.2873,-0.5069 z m -1.75,0 -0.8698,0.4933 0.2874,0.5067 h 0.5824 z m -11.4,-20.1 0.8699,-0.4933 -1.8699,-3.2969 V 24.65 Z m 0,30.35 h -1.85 v 2 h 1.85 z m -0.85,1 V 21.2 h -2 V 56 Z m -1,-33.8 h 2 v -2 h -2 z m 1.1299,-0.5071 12.15,21.45 1.7402,-0.9858 -12.15,-21.45 z m 13.8911,21.4484 12.0996,-21.45 -1.742,-0.9826 -12.0995,21.45 z M 108.723,22.2 h 1.85 v -2 h -1.85 z m 0.85,-1 V 56 h 2 V 21.2 Z m 1,33.8 h -1.85 v 2 h 1.85 z m -0.85,1 V 24.9 h -2 V 56 Z m -1.87,-31.5931 -11.2496,19.85 1.74,0.9862 11.2496,-19.85 z M 97.4734,43.75 h -1.75 v 2 h 1.75 z m -0.8801,0.5067 -11.4,-20.1 -1.7397,0.9866 11.4,20.1 z M 83.3234,24.65 V 56 h 2 V 24.65 Z M 123.535,21.2 v -1 h -1 v 1 z m 24.5,0 h 1 v -1 h -1 z m 0,1.85 v 1 h 1 v -1 z m -22.65,0 v -1 h -1 v 1 z m 0,14.1 h -1 v 1 h 1 z m 19.7,0 h 1 v -1 h -1 z m 0,1.85 v 1 h 1 v -1 z m -19.7,0 v -1 h -1 v 1 z m 0,15.15 h -1 v 1 h 1 z m 22.65,0 h 1 v -1 h -1 z m 0,1.85 v 1 h 1 v -1 z m -24.5,0 h -1 v 1 h 1 z m 0,-33.8 h 24.5 v -2 h -24.5 z m 23.5,-1 v 1.85 h 2 V 21.2 Z m 1,0.85 h -22.65 v 2 h 22.65 z m -23.65,1 v 14.1 h 2 v -14.1 z m 1,15.1 h 19.7 v -2 h -19.7 z m 18.7,-1 V 39 h 2 v -1.85 z m 1,0.85 h -19.7 v 2 h 19.7 z m -20.7,1 v 15.15 h 2 V 39 Z m 1,16.15 h 22.65 v -2 h -22.65 z m 21.65,-1 V 56 h 2 v -1.85 z m 1,0.85 h -24.5 v 2 h 24.5 z m -23.5,1 V 21.2 h -2 V 56 Z m 56.662,-32.9 -0.511,0.8599 0.006,0.0034 z m 5.15,5.15 -0.863,0.5047 0.003,0.0058 z m 0,20.75 0.86,0.5106 0.003,-0.0059 z m -5.15,5.1 -0.505,-0.8633 -0.006,0.0034 z m -19.85,1.9 h -1 v 1 h 1 z m 0,-34.8 v -1 h -1 v 1 z m 23.4,7.95 -0.862,0.5077 v 0 z m -4.5,-4.45 -0.508,0.8616 0.007,0.0038 z m -17.05,-1.65 v -1 h -1 v 1 z m 0,31.1 h -1 v 1 h 1 z m 17.05,-1.65 -0.501,-0.8655 -0.007,0.004 z m 4.5,-4.45 -0.862,-0.5077 v 0 z M 174.197,22.2 c 2.358,0 4.514,0.5869 6.489,1.7599 l 1.021,-1.7198 C 179.416,20.8797 176.906,20.2 174.197,20.2 Z m 6.495,1.7633 c 2.018,1.1799 3.612,2.7731 4.792,4.7914 l 1.726,-1.0094 c -1.353,-2.315 -3.193,-4.1552 -5.508,-5.5086 z m 4.795,4.7972 c 1.173,1.9755 1.76,4.1319 1.76,6.4895 h 2 c 0,-2.709 -0.68,-5.2193 -2.04,-7.5105 z m 1.76,6.4895 v 6.7 h 2 v -6.7 z m 0,6.7 c 0,2.3577 -0.587,4.5333 -1.763,6.5453 l 1.726,1.0094 c 1.357,-2.3213 2.037,-4.8457 2.037,-7.5547 z m -1.76,6.5395 c -1.179,1.9857 -2.773,3.5651 -4.795,4.7472 l 1.01,1.7266 c 2.311,-1.3512 4.15,-3.1719 5.505,-5.4528 z m -4.801,4.7506 C 178.711,54.4131 176.555,55 174.197,55 v 2 c 2.709,0 5.219,-0.6797 7.51,-2.0401 z M 174.197,55 h -12.85 v 2 h 12.85 z m -11.85,1 V 21.2 h -2 V 56 Z m -1,-33.8 h 12.85 v -2 h -12.85 z m 26.05,13.05 c 0,-2.3757 -0.596,-4.5847 -1.789,-6.6077 l -1.723,1.0154 c 1.008,1.7104 1.512,3.568 1.512,5.5923 z m -1.789,-6.6077 c -1.188,-2.017 -2.813,-3.6227 -4.86,-4.8077 l -1.002,1.7308 c 1.753,1.015 3.128,2.376 4.139,4.0923 z m -4.853,-4.8038 C 178.732,22.6464 176.523,22.05 174.147,22.05 v 2 c 2.024,0 3.882,0.5036 5.592,1.5115 z M 174.147,22.05 h -10.95 v 2 h 10.95 z m -11.95,1 v 31.1 h 2 v -31.1 z m 1,32.1 h 10.95 v -2 h -10.95 z m 10.95,0 c 2.376,0 4.585,-0.5964 6.608,-1.7885 l -1.016,-1.723 c -1.71,1.0079 -3.568,1.5115 -5.592,1.5115 z m 6.601,-1.7846 c 2.047,-1.185 3.672,-2.7907 4.86,-4.8077 l -1.723,-1.0154 c -1.011,1.7163 -2.386,3.0773 -4.139,4.0923 z m 4.86,-4.8077 c 1.193,-2.023 1.789,-4.232 1.789,-6.6077 h -2 c 0,2.0243 -0.504,3.8819 -1.512,5.5923 z m 1.789,-6.6077 v -6.7 h -2 v 6.7 z"
     fill="#000000"
     mask="url(#path-2-outside-1_115_3)"
     id="path4"
     transform="translate(-0.53739798,-18.062799)" />
</svg>
